<?xml version="1.0" standalone="no"?>
<!DOCTYPE svg PUBLIC "-//W3C//DTD SVG 20010904//EN"
 "http://www.w3.org/TR/2001/REC-SVG-20010904/DTD/svg10.dtd">
<svg version="1.0" xmlns="http://www.w3.org/2000/svg"
 width="130.000000pt" height="150.000000pt" viewBox="0 0 130.000000 150.000000"
 preserveAspectRatio="xMidYMid meet">

<g transform="translate(0.000000,150.000000) scale(0.100000,-0.100000)"
fill="#000000" stroke="none">
<path d="M325 1317 l-320 -183 0 -378 0 -378 320 -189 c176 -104 323 -188 326
-187 3 2 148 84 322 183 l317 180 -3 379 -2 380 -318 188 c-175 103 -319 188
-320 188 -1 0 -146 -82 -322 -183z m565 -297 l0 -180 -245 0 -245 0 0 180 0
180 245 0 245 0 0 -180z m-275 -275 l0 -80 -62 -3 c-53 -3 -63 0 -76 18 -9 13
-23 20 -34 18 -15 -3 -18 -14 -21 -71 -2 -51 -6 -67 -17 -67 -23 0 -21 137 2
162 9 10 22 18 30 18 7 0 23 11 35 25 16 18 32 25 59 25 29 0 38 4 42 21 4 13
12 20 24 17 16 -3 18 -14 18 -83z m85 65 c0 -16 7 -20 34 -20 20 0 42 -8 52
-17 9 -10 36 -27 58 -38 l41 -20 3 -77 c3 -73 1 -78 -18 -78 -18 0 -20 6 -20
58 0 32 -5 63 -12 70 -18 18 -46 14 -53 -8 -5 -17 -15 -20 -66 -20 l-59 0 0
85 c0 78 2 85 20 85 13 0 20 -7 20 -20z m20 -240 l0 -50 -85 0 -85 0 0 50 0
50 85 0 85 0 0 -50z m-276 -36 c9 -8 16 -24 16 -34 0 -20 -25 -50 -41 -50 -27
0 -49 22 -49 50 0 44 44 65 74 34z m460 0 c9 -8 16 -24 16 -34 0 -20 -25 -50
-41 -50 -27 0 -49 22 -49 50 0 44 44 65 74 34z m-328 -56 c-4 -13 -10 -58 -13
-100 l-6 -78 -74 0 c-72 0 -74 1 -68 23 12 39 41 72 76 83 36 12 44 23 54 67
3 16 12 27 21 27 12 0 15 -6 10 -22z m150 -25 c8 -41 13 -48 41 -55 33 -8 83
-59 83 -84 0 -11 -17 -14 -75 -14 l-75 0 0 58 c-1 31 -5 76 -9 100 -7 36 -6
42 9 42 12 0 19 -13 26 -47z"/>
<path d="M517 1128 c-54 -42 -45 -195 13 -213 67 -21 104 130 48 200 -22 28
-36 31 -61 13z"/>
<path d="M702 1115 c-56 -70 -19 -221 48 -200 59 19 66 185 10 215 -28 15 -37
12 -58 -15z"/>
</g>
</svg>
